<svg width="60" height="27" viewBox="0 0 60 27" fill="none" xmlns="http://www.w3.org/2000/svg">
<path d="M60 13.5521L18.1495 0L52.5 13.5521L60 13.5521Z" fill="url(#paint0_linear_65_1659)"/>
<path d="M18 27L59.8505 13.4479H53L18 27Z" fill="url(#paint1_linear_65_1659)"/>
<path d="M51 13.5521L9.14947 0L43.5 13.5521L51 13.5521Z" fill="url(#paint2_linear_65_1659)"/>
<path d="M9.00001 27L50.8505 13.4479H44L9.00001 27Z" fill="url(#paint3_linear_65_1659)"/>
<path d="M42 13.5521L0.149467 0L34.5 13.5521L42 13.5521Z" fill="url(#paint4_linear_65_1659)"/>
<path d="M7.62939e-06 27L41.8505 13.4479H35L7.62939e-06 27Z" fill="url(#paint5_linear_65_1659)"/>
<defs>
<linearGradient id="paint0_linear_65_1659" x1="52.4437" y1="24.8456" x2="45.4423" y2="-13.1143" gradientUnits="userSpaceOnUse">
<stop offset="0.274949" stop-color="#169A00"/>
<stop offset="0.948828" stop-color="#169A00" stop-opacity="0"/>
</linearGradient>
<linearGradient id="paint1_linear_65_1659" x1="52.2942" y1="2.15444" x2="45.2929" y2="40.1143" gradientUnits="userSpaceOnUse">
<stop offset="0.274949" stop-color="#169A00"/>
<stop offset="0.948828" stop-color="#169A00" stop-opacity="0"/>
</linearGradient>
<linearGradient id="paint2_linear_65_1659" x1="43.4437" y1="24.8456" x2="36.4423" y2="-13.1143" gradientUnits="userSpaceOnUse">
<stop offset="0.274949" stop-color="#169A00"/>
<stop offset="0.948828" stop-color="#169A00" stop-opacity="0"/>
</linearGradient>
<linearGradient id="paint3_linear_65_1659" x1="43.2942" y1="2.15444" x2="36.2929" y2="40.1143" gradientUnits="userSpaceOnUse">
<stop offset="0.274949" stop-color="#169A00"/>
<stop offset="0.948828" stop-color="#169A00" stop-opacity="0"/>
</linearGradient>
<linearGradient id="paint4_linear_65_1659" x1="34.4437" y1="24.8456" x2="27.4423" y2="-13.1143" gradientUnits="userSpaceOnUse">
<stop offset="0.274949" stop-color="#169A00"/>
<stop offset="0.948828" stop-color="#169A00" stop-opacity="0"/>
</linearGradient>
<linearGradient id="paint5_linear_65_1659" x1="34.2942" y1="2.15444" x2="27.2929" y2="40.1143" gradientUnits="userSpaceOnUse">
<stop offset="0.274949" stop-color="#169A00"/>
<stop offset="0.948828" stop-color="#169A00" stop-opacity="0"/>
</linearGradient>
</defs>
</svg>
